<svg width="28" height="28" viewBox="0 0 28 28" fill="none" xmlns="http://www.w3.org/2000/svg">
<path d="M10.5002 25.6667H17.5002C23.3335 25.6667 25.6668 23.3334 25.6668 17.5V10.5C25.6668 4.66671 23.3335 2.33337 17.5002 2.33337H10.5002C4.66683 2.33337 2.3335 4.66671 2.3335 10.5V17.5C2.3335 23.3334 4.66683 25.6667 10.5002 25.6667Z" stroke="white" stroke-width="1.5" stroke-linecap="round" stroke-linejoin="round"/>
<path d="M13.9998 18.0833C16.255 18.0833 18.0832 16.2551 18.0832 14C18.0832 11.7448 16.255 9.91663 13.9998 9.91663C11.7447 9.91663 9.9165 11.7448 9.9165 14C9.9165 16.2551 11.7447 18.0833 13.9998 18.0833Z" stroke="white" stroke-width="1.5" stroke-linecap="round" stroke-linejoin="round"/>
<path d="M20.5756 8.16671H20.5891" stroke="white" stroke-width="2" stroke-linecap="round" stroke-linejoin="round"/>
</svg>
