<svg width="56" height="56" viewBox="0 0 56 56" fill="none" xmlns="http://www.w3.org/2000/svg">
<g clip-path="url(#clip0_1_666)">
<path opacity="0.2" d="M40.8335 5.70186C34.9382 2.29825 27.9324 1.37592 21.3571 3.13776C14.7818 4.8996 9.17575 9.20129 5.77214 15.0965C2.36852 20.9917 1.4462 27.9976 3.20804 34.5729C4.96988 41.1481 9.27156 46.7542 15.1668 50.1578C21.062 53.5614 28.0679 54.4838 34.6431 52.7219C41.2184 50.9601 46.8245 46.6584 50.2281 40.7632C53.6317 34.868 54.554 27.8621 52.7922 21.2868C51.0304 14.7115 46.7287 9.10547 40.8335 5.70186ZM17.5001 46.1164C12.6768 43.3316 9.1572 38.7448 7.7157 33.3651C6.27419 27.9853 7.02881 22.2532 9.81359 17.4298C12.5984 12.6065 17.1852 9.08692 22.5649 7.64542C27.9447 6.20391 33.6768 6.95854 38.5001 9.74331C43.3235 12.5281 46.843 17.1149 48.2845 22.4946C49.726 27.8744 48.9714 33.6065 46.1867 38.4298C43.4019 43.2532 38.8151 46.7728 33.4353 48.2143C28.0555 49.6558 22.3235 48.9012 17.5001 46.1164Z" fill="#DFB55E"/>
<path d="M39.0002 8.87733C38.724 9.35562 38.8894 9.96522 39.354 10.2638C43.7384 13.0813 46.9296 17.4377 48.2846 22.4947C49.6396 27.5517 49.0541 32.92 46.6659 37.5522C46.4129 38.0431 46.5744 38.6537 47.0527 38.9299L49.3621 40.2632C49.8404 40.5394 50.4539 40.3762 50.7113 39.8875C53.7158 34.1814 54.4676 27.5395 52.7922 21.2869C51.1169 15.0342 47.1448 9.65805 41.6897 6.21874C41.2226 5.92419 40.6096 6.08964 40.3335 6.56793L39.0002 8.87733Z" fill="#DFB55E"/>
</g>
<defs>
<clipPath id="clip0_1_666">
<rect width="56" height="56" fill="white"/>
</clipPath>
</defs>
</svg>
