<?xml version="1.0" encoding="utf-8"?>
<!-- Generator: Adobe Illustrator 28.1.0, SVG Export Plug-In . SVG Version: 6.00 Build 0)  -->
<svg version="1.1" id="Layer_1" xmlns="http://www.w3.org/2000/svg" xmlns:xlink="http://www.w3.org/1999/xlink" x="0px" y="0px"
	 viewBox="0 0 750.13 230.33" style="enable-background:new 0 0 750.13 230.33;" xml:space="preserve">
<style type="text/css">
	.st0{fill:none;stroke:#000000;stroke-width:1.7604;stroke-miterlimit:10;}
	.st1{fill-rule:evenodd;clip-rule:evenodd;}
	.st2{fill:url(#SVGID_1_);}
	.st3{fill:url(#SVGID_00000044884682555159179440000017760286906860416168_);}
	.st4{fill:url(#SVGID_00000114759060936672183800000017534486292488782781_);}
	.st5{fill:#2E3192;}
</style>
<g>
	<line class="st0" x1="290.12" y1="36.55" x2="290.12" y2="195.61"/>
	<g>
		<path class="st1" d="M514.28,138.81c90.89-9.33,153.17-1.06,199.41,11.7c0.33,0.04-86.64-12.69-195.33,0.88
			c-103.61,12.54-176.6,44.96-176.42,44.26C371.94,174.75,423.54,151.42,514.28,138.81z"/>
		<path class="st1" d="M678.66,124.69v3.45h8.11V53h-8.11v22.96l-0.04-0.03c-2.06-2.26-4.84-4.57-8.72-4.5
			c-8.16,0.14-14.16,9.96-14.24,28.78c-0.06,17.7,5,29.07,14.24,29.15c3.96,0.03,6.95-2.41,8.72-4.7L678.66,124.69z M671.15,120.22
			c-4.41-0.34-7.07-6.82-7.21-19.57c-0.14-13.12,3.04-20.09,7.25-20.09c3.25,0,5.41,3.13,7.47,6.62l-0.04,26.04
			c-1.71,3.49-3.72,6.89-7.41,6.99H671.15z"/>
		<path class="st1" d="M647.77,128.16v-38.4c-0.16-6.8-0.93-10.51-2.59-13.64c-1.57-3.09-4.61-4.74-7.76-4.74
			c-2.09,0-4.57,1.01-6.37,2.44c-1.94,1.51-2.68,2.01-4.52,4.36l-0.04,0.04v-5.58h-8.12l0.04,55.52h8.08l0.08-39.05
			c1.48-2.58,2.43-3.55,3.9-5.23c1.51-1.28,2.97-2.56,4.63-2.56c2.09,0,2.78,1.22,3.43,2.63c0.73,1.84,1.04,4.51,1.04,8.75
			l0.04,35.46H647.77z"/>
		<polygon class="st1" points="576.91,128.15 576.91,119.61 555.94,119.61 555.94,53.02 547.81,53.02 547.85,128.15 		"/>
		<path class="st1" d="M609.01,128.15v-1.87c-0.92-0.91-1.07-2.98-1.07-7.4V92.83c0-16.01-3.83-21.33-11.99-21.37
			c-8.56-0.04-12.04,8.14-12.78,16.41l8.22,1.1c0.45-4.56,1.63-9.43,4.29-9.36c2.98,0.08,3.94,3.71,4.06,11.14v1.15
			c-13.5,3.22-17.76,11.02-17.8,21.75c-0.04,9.97,3.94,15.7,10.77,15.7c3.31,0,6.26-2,7.6-3.83v0.19c0.15,0.95,0.3,1.42,0.77,2.44
			H609.01z M599.78,116.35c-1.43,2.49-3.61,4.35-5.41,4.39c-3.18,0.08-4.22-3.36-4.1-8.75c0.15-6.95,4.17-10.62,9.5-12.33V116.35z"
			/>
		<path class="st1" d="M539.35,128.15v-1.87c-0.92-0.91-1.08-2.98-1.08-7.4V92.83c0-16.01-3.83-21.33-11.98-21.37
			c-8.56-0.04-12.04,8.14-12.77,16.41l8.22,1.1c0.46-4.56,1.63-9.43,4.29-9.36c2.98,0.08,3.94,3.71,4.06,11.14v1.15
			c-13.51,3.22-17.76,11.02-17.8,21.75c-0.04,9.97,3.94,15.7,10.78,15.7c3.3,0,6.25-2,7.6-3.83v0.19c0.16,0.95,0.3,1.42,0.77,2.44
			H539.35z M530.12,116.35c-1.42,2.49-3.61,4.35-5.41,4.39c-3.17,0.08-4.22-3.36-4.1-8.75c0.15-6.95,4.17-10.62,9.5-12.33V116.35z"
			/>
		<path class="st1" d="M421.91,151.57h8.14v-26.44l0.06,0.03c0.87,1.01,1.32,1.54,2.67,2.46c1.91,1.3,3.28,1.64,5.26,1.75
			c4.62,0.27,8.65-3.06,10.78-7.37c2.31-4.66,3.7-12.09,3.7-21.69c0-9.92-1.47-16.98-3.66-21.39c-2.68-5.38-6.49-7.49-10.24-7.49
			c-2.16,0-4.03,0.59-5.56,1.67c-1.53,1.13-1.92,1.57-3.04,2.82h-0.03l0.03-3.26h-8.1V151.57z M430.05,87.08
			c1.3-2.43,2.11-3.81,3.43-4.93c1.52-1.26,2.43-1.47,3.72-1.51c1.89-0.06,3.7,1.31,5.05,4.52c1.37,3.49,1.95,8.29,1.95,15.33
			c0,8.25-0.87,12.94-2.07,15.72c-1.27,2.32-2.71,3.95-4.96,3.95c-1.64,0-2.9-0.9-4.15-2.05c-1.11-1.4-1.82-1.91-2.98-4.4V87.08z"/>
		<path class="st1" d="M414.13,128.15v-1.87c-0.92-0.91-1.08-2.98-1.08-7.4V92.83c0-16.01-3.83-21.33-11.98-21.37
			c-8.56-0.04-12.05,8.14-12.78,16.41l8.22,1.1c0.46-4.56,1.64-9.43,4.29-9.36c2.98,0.08,3.94,3.71,4.06,11.14v1.15
			c-13.5,3.22-17.76,11.02-17.79,21.75c-0.04,9.97,3.93,15.7,10.77,15.7c3.3,0,6.25-2,7.6-3.83v0.19c0.15,0.95,0.3,1.42,0.77,2.44
			H414.13z M404.9,116.35c-1.43,2.49-3.61,4.35-5.41,4.39c-3.17,0.08-4.22-3.36-4.1-8.75c0.15-6.95,4.18-10.62,9.51-12.33V116.35z"
			/>
		<path class="st1" d="M488.49,72.74h-4.39v8.52h4.39v32.51c0,13.49,4.91,15.3,10.17,15.87c3.05,0.33,6.47-2.29,8.33-3.86
			l-2.09-8.52c-1.53,1.93-2.56,3.45-4.58,3.45c-2.88,0-3.76-3.47-3.76-12.91V81.26h8.2v-8.52h-8.2V60.77h-8.07V72.74z"/>
		<g>
			<path class="st1" d="M480.48,60.79c-6.27-0.73-9.95,7.5-16.03,31.44c-5.91,23.1-9.34,39.23-10.26,52.26
				c-0.18,2.51,0.64,5.12,1.56,4.94c2.02-0.38,3.88-7.57,10.04-20.13c13.46-27.62,13.4-23.96,13.49-28.76
				c0.02-1.37-0.51-2.18-1.06-2.08c-0.95-0.03-1.55,0.71-12.5,20.79C468.4,101.66,475.2,75.24,480.48,60.79z"/>
		</g>
		<g>
			<path class="st1" d="M373.67,105.26c-1.7,6.45-4.34,15.49-10.81,15.49c-6.59,0-12.92-7-12.92-30.02
				c0-22.94,6.49-30.25,12.74-30.33c5.75-0.08,8.51,5.84,10.19,13.87l7.74-1.78c-2.62-14.24-9.37-20.39-17.65-20.44
				c-5.87-0.03-11.12,3.36-14.71,9.38c-3.72,6.39-6.3,16.74-6.3,29.03c0,13.5,2.52,23.51,6.53,30.02c3.47,5.63,8.96,8.76,14.38,8.76
				c8.45,0,16-9.05,18.56-21.73L373.67,105.26z"/>
		</g>
		<path d="M488.53,45.87c0,4.95-4.01,8.96-8.96,8.96c-4.95,0-8.96-4.01-8.96-8.96c0-4.95,4.01-8.96,8.96-8.96
			C484.52,36.92,488.53,40.93,488.53,45.87z"/>
	</g>
</g>
<g>
	<g>
		<g>
			<path d="M53.54,49.21c-0.91,0-1.75-0.17-2.53-0.5c-0.78-0.33-1.45-0.78-2.02-1.35c-0.57-0.57-1.01-1.25-1.33-2.03
				s-0.48-1.61-0.48-2.49v-0.04c0-0.88,0.16-1.71,0.48-2.49s0.76-1.45,1.33-2.03c0.57-0.58,1.24-1.04,2.03-1.38
				c0.79-0.34,1.66-0.5,2.62-0.5c0.58,0,1.11,0.05,1.58,0.14c0.48,0.09,0.91,0.22,1.3,0.39c0.39,0.17,0.75,0.37,1.08,0.6
				c0.33,0.24,0.64,0.5,0.92,0.78l-1.73,2c-0.48-0.44-0.98-0.78-1.48-1.03c-0.5-0.25-1.06-0.37-1.69-0.37c-0.52,0-1,0.1-1.44,0.3
				c-0.44,0.2-0.82,0.48-1.14,0.83c-0.32,0.35-0.57,0.76-0.74,1.23s-0.26,0.96-0.26,1.49v0.04c0,0.53,0.09,1.03,0.26,1.5
				s0.42,0.88,0.73,1.24c0.31,0.35,0.69,0.63,1.13,0.84c0.44,0.21,0.93,0.31,1.46,0.31c0.71,0,1.31-0.13,1.79-0.39
				c0.49-0.26,0.98-0.61,1.46-1.06L58.61,47c-0.32,0.34-0.65,0.65-0.99,0.92c-0.34,0.27-0.72,0.5-1.12,0.7
				c-0.41,0.19-0.85,0.34-1.34,0.44C54.68,49.16,54.14,49.21,53.54,49.21z"/>
			<path d="M61.23,36.62h9.32v2.42h-6.63v2.51h5.84v2.42h-5.84v2.6h6.72V49h-9.41V36.62z"/>
			<path d="M73.52,36.62h2.72v9.92h6.17V49h-8.9V36.62z"/>
			<path d="M84.91,36.62h9.32v2.42H87.6v2.51h5.84v2.42H87.6v2.6h6.72V49h-9.41V36.62z"/>
			<path d="M97.2,36.62h5.74c1.42,0,2.5,0.37,3.23,1.1c0.56,0.57,0.85,1.27,0.85,2.1v0.04c0,0.35-0.04,0.67-0.13,0.94
				s-0.21,0.52-0.35,0.73c-0.15,0.22-0.32,0.41-0.51,0.57c-0.19,0.17-0.4,0.31-0.62,0.42c0.72,0.27,1.28,0.64,1.69,1.11
				c0.41,0.47,0.62,1.11,0.62,1.94v0.04c0,0.57-0.11,1.06-0.33,1.49s-0.53,0.78-0.94,1.06c-0.41,0.28-0.89,0.5-1.47,0.64
				s-1.2,0.21-1.9,0.21H97.2V36.62z M102.37,41.62c0.6,0,1.08-0.1,1.43-0.31c0.35-0.21,0.53-0.54,0.53-1v-0.04
				c0-0.41-0.15-0.73-0.46-0.95c-0.31-0.22-0.75-0.33-1.33-0.33h-2.69v2.62H102.37z M103.09,46.61c0.6,0,1.07-0.11,1.42-0.33
				c0.34-0.22,0.51-0.56,0.51-1.02v-0.04c0-0.41-0.16-0.74-0.48-0.98c-0.32-0.24-0.83-0.36-1.54-0.36h-3.15v2.72H103.09z"/>
			<path d="M110.41,36.62h5.66c1.57,0,2.77,0.42,3.61,1.26c0.71,0.71,1.06,1.65,1.06,2.83v0.04c0,1-0.24,1.82-0.73,2.45
				s-1.13,1.09-1.92,1.39l3.02,4.42h-3.18l-2.65-3.96h-0.04h-2.1V49h-2.72V36.62z M115.9,42.63c0.67,0,1.19-0.16,1.55-0.48
				c0.36-0.32,0.54-0.74,0.54-1.27v-0.04c0-0.59-0.19-1.03-0.57-1.33c-0.38-0.29-0.9-0.44-1.57-0.44h-2.71v3.55H115.9z"/>
			<path d="M127.89,36.53h2.51L135.7,49h-2.85l-1.13-2.78h-5.23L125.36,49h-2.78L127.89,36.53z M130.75,43.82l-1.64-4.01l-1.64,4.01
				H130.75z"/>
			<path d="M140.94,39.13h-3.77v-2.51h10.26v2.51h-3.77V49h-2.72V39.13z"/>
			<path d="M150.08,36.62h2.72V49h-2.72V36.62z"/>
			<path d="M156.34,36.62h2.51l5.8,7.62v-7.62h2.69V49h-2.32l-6-7.87V49h-2.69V36.62z"/>
			<path d="M176.72,49.21c-0.97,0-1.85-0.16-2.64-0.48s-1.48-0.76-2.05-1.33c-0.57-0.57-1.02-1.24-1.33-2.02
				c-0.32-0.78-0.48-1.63-0.48-2.55v-0.04c0-0.88,0.16-1.71,0.49-2.49s0.78-1.45,1.35-2.03c0.58-0.58,1.26-1.04,2.05-1.38
				s1.66-0.5,2.6-0.5c0.55,0,1.06,0.04,1.51,0.11c0.45,0.08,0.88,0.19,1.26,0.33c0.39,0.14,0.75,0.32,1.1,0.53
				c0.34,0.21,0.67,0.45,0.99,0.72l-1.71,2.07c-0.24-0.2-0.47-0.38-0.71-0.53c-0.24-0.15-0.48-0.28-0.73-0.39
				c-0.25-0.11-0.53-0.19-0.82-0.25c-0.29-0.06-0.62-0.09-0.97-0.09c-0.5,0-0.96,0.1-1.39,0.31s-0.81,0.48-1.13,0.83
				s-0.58,0.76-0.76,1.22s-0.27,0.97-0.27,1.5v0.04c0,0.57,0.09,1.09,0.27,1.57s0.44,0.9,0.78,1.25s0.73,0.63,1.18,0.82
				c0.45,0.19,0.96,0.29,1.51,0.29c1.01,0,1.87-0.25,2.56-0.75v-1.78h-2.74v-2.35H182v5.38c-0.64,0.54-1.39,1.01-2.27,1.39
				C178.85,49.02,177.85,49.21,176.72,49.21z"/>
		</g>
	</g>
	<path d="M115.59,105.4"/>
	<g>
		<path d="M116.84,103.04c-10.09-5.44-24.26-4.58-24.26-4.58l27.07-18.15l-0.07-24.42H46.96v24.72l39-0.39L58.11,98.19l-0.03,21.05
			c0,0,36.21-0.07,36.21-0.07c12.25,0.33,19.25,4.87,22.55,7.32V103.04z"/>
		<g>
			<linearGradient id="SVGID_1_" gradientUnits="userSpaceOnUse" x1="50.821" y1="182.5386" x2="209.7382" y2="65.3411">
				<stop  offset="9.495575e-03" style="stop-color:#414042"/>
				<stop  offset="0.3015" style="stop-color:#6D6E71"/>
				<stop  offset="0.5361" style="stop-color:#A7A9AC"/>
				<stop  offset="0.6678" style="stop-color:#7F8183"/>
				<stop  offset="0.7393" style="stop-color:#6D6E71"/>
				<stop  offset="0.7855" style="stop-color:#5F6062"/>
				<stop  offset="0.8537" style="stop-color:#4F4F51"/>
				<stop  offset="0.9242" style="stop-color:#444446"/>
				<stop  offset="1" style="stop-color:#414042"/>
			</linearGradient>
			<path class="st2" d="M215.87,98.39c0-15.47-12.08-40.02-44.5-40.02c-29.33,0-49.82,19.46-49.82,47.31
				c-0.01,2.92,0.03,12.71,0.07,20.88c0.03,5.77,0.06,11.2,0.06,13.64c0,21.39-5.81,27.67-25.89,28.02
				c-8.77,0.17-15.3-1.82-19.96-6.05c-5.42-4.92-9.36-11.18-10.62-23.98h-6.77c1.2,13.24,5.18,21.98,12.86,28.96
				c5.78,5.25,13.48,7.81,23.52,7.81c0.36,0,0.72,0,1.09-0.01c23.69-0.41,32.5-9.83,32.5-34.75c0-2.45-0.03-7.89-0.06-13.68
				c-0.04-8.15-0.08-17.92-0.07-20.83c0-24.27,17.32-40.58,43.09-40.58c27.51,0,37.76,20.41,37.76,33.28
				c0,2.9,0.03,11.39,0.03,11.39l6.73-0.03C215.91,109.75,215.87,101.28,215.87,98.39z"/>
			
				<linearGradient id="SVGID_00000047020509938656597050000012409676505379730348_" gradientUnits="userSpaceOnUse" x1="51.4031" y1="183.3279" x2="210.3203" y2="66.1304">
				<stop  offset="9.495575e-03" style="stop-color:#414042"/>
				<stop  offset="0.3015" style="stop-color:#6D6E71"/>
				<stop  offset="0.5361" style="stop-color:#A7A9AC"/>
				<stop  offset="0.6678" style="stop-color:#7F8183"/>
				<stop  offset="0.7393" style="stop-color:#6D6E71"/>
				<stop  offset="0.7855" style="stop-color:#5F6062"/>
				<stop  offset="0.8537" style="stop-color:#4F4F51"/>
				<stop  offset="0.9242" style="stop-color:#444446"/>
				<stop  offset="1" style="stop-color:#414042"/>
			</linearGradient>
			<path style="fill:url(#SVGID_00000047020509938656597050000012409676505379730348_);" d="M204.39,98.88
				c0-8.5-9.82-29.85-33.02-29.85c-22.22,0-38.34,15.43-38.34,36.68c-0.01,3.03,0.03,11.65,0.07,19.98
				c0.03,6.24,0.06,12.07,0.06,14.51l0.01,1.41c0.08,11.89,0.25,36.62-37.16,37.27c-13.18,0.23-23.41-3.13-30.38-9.97
				c-6.81-6.69-10.74-16.8-11.94-30.72h-5.78c1.27,15.61,5.77,27.07,13.68,34.84c7.86,7.72,19.01,11.64,33.17,11.64
				c0.45,0,0.9,0,1.35-0.01c43.12-0.74,42.91-31.5,42.83-43.08l-0.01-1.37c0-2.44-0.03-8.28-0.06-14.53
				c-0.04-7.93-0.08-16.92-0.07-19.94c0-18.2,13.39-30.92,32.57-30.92c20.43,0,27.25,18.98,27.25,24.08
				c0,2.82,0.03,10.92,0.03,10.92l5.77-0.02C204.43,109.78,204.39,101.7,204.39,98.88z"/>
			<g>
				
					<linearGradient id="SVGID_00000023255764134282372430000011095691189099703485_" gradientUnits="userSpaceOnUse" x1="52.5446" y1="184.8758" x2="211.4618" y2="67.6783">
					<stop  offset="9.495575e-03" style="stop-color:#414042"/>
					<stop  offset="0.3015" style="stop-color:#6D6E71"/>
					<stop  offset="0.5361" style="stop-color:#A7A9AC"/>
					<stop  offset="0.6678" style="stop-color:#7F8183"/>
					<stop  offset="0.7393" style="stop-color:#6D6E71"/>
					<stop  offset="0.7855" style="stop-color:#5F6062"/>
					<stop  offset="0.8537" style="stop-color:#4F4F51"/>
					<stop  offset="0.9242" style="stop-color:#444446"/>
					<stop  offset="1" style="stop-color:#414042"/>
				</linearGradient>
				<path style="fill:url(#SVGID_00000023255764134282372430000011095691189099703485_);" d="M193.88,100.48
					c0-7.59-7.73-21.75-22.5-21.75c-19.12,0-27.82,13.99-27.82,26.98c-0.01,2.82,0.03,12.8,0.07,20.75
					c0.03,5.81,0.06,11.27,0.06,13.74l0,0.8c0.01,7.58,0.02,17.01-5.66,26.75c-5.51,9.46-15.24,20.37-41.81,20.83
					c-14.77,0.27-26.82-3.75-35.78-11.88c-10.65-9.68-15.93-21.24-17.28-38.51h-6.75c1.45,19.26,7.5,32.6,19.5,43.5
					c9.96,9.05,23.08,13.64,38.98,13.64c0.48,0,0.96,0,1.44-0.01c30.27-0.52,41.62-14.04,47.51-24.17
					c6.6-11.32,6.58-22.2,6.58-30.15l0-0.79c0-2.47-0.03-7.94-0.06-13.77c-0.04-7.94-0.08-17.89-0.07-20.7
					c0-7.52,4.44-20.25,21.09-20.25c11.02,0,15.77,11.4,15.77,15.01c0,2.64,0.03,8.77,0.03,9.31l2.21,0.01l4.53-0.05
					C193.9,109.22,193.88,103.11,193.88,100.48z"/>
				<polygon class="st5" points="187.17,109.83 190.54,109.82 189.38,109.81 				"/>
			</g>
		</g>
	</g>
	<g>
		<path d="M186.77,144.01c-1.61,16.64-8.75,22.43-26.88,22.77c-2.7,0.05-6.92-0.35-8.96-0.73c-1.58,6.54-7.75,15.44-17.89,23.86
			c7.15,3.8,15.92,5.9,25.91,5.9c0.49,0,0.98,0,1.48-0.01c29.74-0.55,41.82-15.21,48.4-27.42c4.79-8.88,6.6-17.13,7.25-24.37H186.77
			z"/>
	</g>
	<g>
		<g>
			<path d="M180.92,120.53l-4.03-6.36h2.7l2.5,4.21l2.55-4.21h2.62l-4.04,6.32v4.18h-2.31V120.53z"/>
			<path d="M188.32,114.17h7.91v2.05h-5.62v2.13h4.95v2.06h-4.95v2.21h5.7v2.05h-7.98V114.17z"/>
			<path d="M201.6,114.1h2.13l4.5,10.58h-2.42l-0.96-2.36h-4.44l-0.96,2.36h-2.35L201.6,114.1z M204.03,120.28l-1.4-3.41l-1.4,3.41
				H204.03z"/>
			<path d="M209.47,114.17h4.8c1.33,0,2.35,0.36,3.06,1.07c0.6,0.6,0.9,1.4,0.9,2.4v0.03c0,0.85-0.21,1.54-0.62,2.08
				c-0.42,0.54-0.96,0.93-1.63,1.18l2.56,3.75h-2.7l-2.25-3.36h-0.03h-1.79v3.36h-2.31V114.17z M214.13,119.27
				c0.57,0,1.01-0.13,1.31-0.4c0.3-0.27,0.46-0.63,0.46-1.08v-0.03c0-0.5-0.16-0.88-0.48-1.12c-0.32-0.25-0.77-0.38-1.33-0.38h-2.3
				v3.01H214.13z"/>
			<path d="M223.69,124.82c-0.8,0-1.58-0.14-2.35-0.41c-0.77-0.27-1.47-0.7-2.1-1.27l1.36-1.63c0.48,0.39,0.97,0.7,1.48,0.93
				c0.5,0.23,1.06,0.35,1.66,0.35c0.48,0,0.85-0.09,1.12-0.26s0.4-0.42,0.4-0.73v-0.03c0-0.15-0.03-0.28-0.08-0.4
				c-0.06-0.11-0.16-0.22-0.32-0.32s-0.37-0.2-0.65-0.3c-0.28-0.1-0.63-0.21-1.08-0.32c-0.53-0.13-1.01-0.27-1.44-0.43
				s-0.8-0.36-1.1-0.59c-0.3-0.24-0.53-0.53-0.7-0.88c-0.17-0.35-0.25-0.78-0.25-1.3v-0.03c0-0.48,0.09-0.91,0.27-1.3
				s0.43-0.72,0.75-1c0.32-0.28,0.71-0.5,1.16-0.64c0.45-0.15,0.94-0.23,1.48-0.23c0.77,0,1.48,0.12,2.12,0.35
				c0.65,0.23,1.24,0.56,1.78,0.99l-1.2,1.74c-0.47-0.32-0.93-0.57-1.38-0.76c-0.45-0.19-0.9-0.28-1.35-0.28
				c-0.45,0-0.79,0.09-1.01,0.26s-0.34,0.39-0.34,0.65v0.03c0,0.17,0.03,0.32,0.1,0.44c0.06,0.12,0.18,0.24,0.35,0.34
				c0.17,0.1,0.4,0.19,0.7,0.29c0.3,0.09,0.67,0.19,1.12,0.31c0.53,0.14,1,0.3,1.42,0.47s0.77,0.38,1.05,0.63
				c0.29,0.25,0.5,0.53,0.65,0.86s0.22,0.73,0.22,1.19v0.03c0,0.52-0.09,0.98-0.28,1.39c-0.19,0.41-0.45,0.75-0.79,1.02
				s-0.74,0.49-1.21,0.63C224.78,124.75,224.26,124.82,223.69,124.82z"/>
			<path d="M160.49,129.17h2.31v10.5h-2.31V129.17z"/>
			<path d="M165.05,129.17h2.13l4.92,6.46v-6.46h2.28v10.5h-1.96l-5.08-6.67v6.67h-2.28V129.17z"/>
			<path d="M179.82,129.17h2.55l2.74,7.39l2.75-7.39h2.49l-4.25,10.58h-2.04L179.82,129.17z"/>
			<path d="M191.7,129.17h2.31v10.5h-2.31V129.17z"/>
			<path d="M196.26,129.17h7.91v2.05h-5.62v2.13h4.95v2.06h-4.95v2.21h5.7v2.05h-7.98V129.17z"/>
			<path d="M208.38,131.3h-3.2v-2.13h8.7v2.13h-3.19v8.37h-2.31V131.3z"/>
			<path d="M215.28,129.17h2.13l4.92,6.46v-6.46h2.28v10.5h-1.96l-5.08-6.67v6.67h-2.28V129.17z"/>
			<path d="M230.35,129.1h2.13l4.5,10.58h-2.42l-0.96-2.36h-4.44l-0.96,2.36h-2.35L230.35,129.1z M232.78,135.28l-1.4-3.41
				l-1.4,3.41H232.78z"/>
			<path d="M238.23,129.17h2.49l2.76,4.44l2.76-4.44h2.49v10.5h-2.28v-6.86l-2.96,4.49h-0.06l-2.92-4.44v6.81h-2.28V129.17z"/>
		</g>
	</g>
</g>
</svg>
