<?xml version="1.0" encoding="utf-8"?>
<!-- Generator: Adobe Illustrator 26.0.1, SVG Export Plug-In . SVG Version: 6.00 Build 0)  -->
<svg version="1.1" id="Layer_1" xmlns="http://www.w3.org/2000/svg" xmlns:xlink="http://www.w3.org/1999/xlink" x="0px" y="0px"
	 viewBox="0 0 750.13 230.33" style="enable-background:new 0 0 750.13 230.33;" xml:space="preserve">
<style type="text/css">
	.st0{fill-rule:evenodd;clip-rule:evenodd;}
</style>
<g>
	<g>
		<path class="st0" d="M361.53,137.69c90.89-9.33,153.17-1.06,199.41,11.7c0.33,0.04-86.64-12.69-195.33,0.88
			C262,162.81,189.01,195.23,189.2,194.53C219.19,173.63,270.79,150.3,361.53,137.69z"/>
		<path class="st0" d="M525.91,123.56v3.45h8.11V51.88h-8.11v22.96l-0.04-0.03c-2.06-2.26-4.84-4.57-8.72-4.5
			c-8.16,0.14-14.16,9.96-14.24,28.78c-0.06,17.7,5,29.07,14.24,29.15c3.96,0.03,6.95-2.41,8.72-4.7L525.91,123.56z M518.4,119.1
			c-4.41-0.34-7.07-6.82-7.21-19.57c-0.14-13.12,3.04-20.09,7.25-20.09c3.25,0,5.41,3.13,7.47,6.62l-0.04,26.04
			c-1.71,3.49-3.72,6.89-7.41,6.99H518.4z"/>
		<path class="st0" d="M495.02,127.04v-38.4c-0.16-6.8-0.93-10.51-2.59-13.64c-1.57-3.09-4.61-4.74-7.76-4.74
			c-2.09,0-4.57,1.01-6.37,2.44c-1.94,1.51-2.68,2.01-4.52,4.36l-0.04,0.04v-5.58h-8.12l0.04,55.52h8.08l0.08-39.05
			c1.48-2.58,2.43-3.55,3.9-5.23c1.51-1.28,2.97-2.56,4.63-2.56c2.09,0,2.78,1.22,3.43,2.63c0.73,1.84,1.04,4.51,1.04,8.75
			l0.04,35.46H495.02z"/>
		<polygon class="st0" points="424.16,127.03 424.16,118.48 403.19,118.48 403.19,51.89 395.06,51.89 395.09,127.03 		"/>
		<path class="st0" d="M456.26,127.03v-1.87c-0.92-0.91-1.07-2.98-1.07-7.4V91.7c0-16.01-3.83-21.33-11.99-21.37
			c-8.56-0.04-12.04,8.14-12.78,16.41l8.22,1.1c0.45-4.56,1.63-9.43,4.29-9.36c2.98,0.08,3.94,3.71,4.06,11.14v1.15
			c-13.5,3.22-17.76,11.02-17.8,21.75c-0.04,9.97,3.94,15.7,10.77,15.7c3.31,0,6.26-2,7.6-3.83v0.19c0.15,0.95,0.3,1.42,0.77,2.44
			H456.26z M447.03,115.23c-1.43,2.49-3.61,4.35-5.41,4.39c-3.18,0.08-4.22-3.36-4.1-8.75c0.15-6.95,4.17-10.62,9.5-12.33V115.23z"
			/>
		<path class="st0" d="M386.6,127.03v-1.87c-0.92-0.91-1.08-2.98-1.08-7.4V91.7c0-16.01-3.83-21.33-11.98-21.37
			c-8.56-0.04-12.04,8.14-12.77,16.41l8.22,1.1c0.46-4.56,1.63-9.43,4.29-9.36c2.98,0.08,3.94,3.71,4.06,11.14v1.15
			c-13.51,3.22-17.76,11.02-17.8,21.75c-0.04,9.97,3.94,15.7,10.78,15.7c3.3,0,6.25-2,7.6-3.83v0.19c0.16,0.95,0.3,1.42,0.77,2.44
			H386.6z M377.36,115.23c-1.42,2.49-3.61,4.35-5.41,4.39c-3.17,0.08-4.22-3.36-4.1-8.75c0.15-6.95,4.17-10.62,9.5-12.33V115.23z"/>
		<path class="st0" d="M269.16,150.44h8.14V124l0.06,0.03c0.87,1.01,1.32,1.54,2.67,2.46c1.91,1.3,3.28,1.64,5.26,1.75
			c4.62,0.27,8.65-3.06,10.78-7.37c2.31-4.66,3.7-12.09,3.7-21.69c0-9.92-1.47-16.98-3.66-21.39c-2.68-5.38-6.49-7.49-10.24-7.49
			c-2.16,0-4.03,0.59-5.56,1.67c-1.53,1.13-1.92,1.57-3.04,2.82h-0.03l0.03-3.26h-8.1V150.44z M277.29,85.95
			c1.3-2.43,2.11-3.81,3.43-4.93c1.52-1.26,2.43-1.47,3.72-1.51c1.89-0.06,3.7,1.31,5.05,4.52c1.37,3.49,1.95,8.29,1.95,15.33
			c0,8.25-0.87,12.94-2.07,15.72c-1.27,2.32-2.71,3.95-4.96,3.95c-1.64,0-2.9-0.9-4.15-2.05c-1.11-1.4-1.82-1.91-2.98-4.4V85.95z"/>
		<path class="st0" d="M261.38,127.03v-1.87c-0.92-0.91-1.08-2.98-1.08-7.4V91.7c0-16.01-3.83-21.33-11.98-21.37
			c-8.56-0.04-12.05,8.14-12.78,16.41l8.22,1.1c0.46-4.56,1.64-9.43,4.29-9.36c2.98,0.08,3.94,3.71,4.06,11.14v1.15
			c-13.5,3.22-17.76,11.02-17.79,21.75c-0.04,9.97,3.93,15.7,10.77,15.7c3.3,0,6.25-2,7.6-3.83v0.19c0.15,0.95,0.3,1.42,0.77,2.44
			H261.38z M252.15,115.23c-1.43,2.49-3.61,4.35-5.41,4.39c-3.17,0.08-4.22-3.36-4.1-8.75c0.15-6.95,4.18-10.62,9.51-12.33V115.23z"
			/>
		<path class="st0" d="M335.74,71.61h-4.39v8.52h4.39v32.51c0,13.49,4.91,15.3,10.17,15.87c3.05,0.33,6.47-2.29,8.33-3.86
			l-2.09-8.52c-1.53,1.93-2.56,3.45-4.58,3.45c-2.88,0-3.76-3.47-3.76-12.91V80.13h8.2v-8.52h-8.2V59.64h-8.07V71.61z"/>
		<g>
			<path class="st0" d="M327.73,59.67c-6.27-0.73-9.95,7.5-16.03,31.44c-5.91,23.1-9.34,39.23-10.26,52.26
				c-0.18,2.51,0.64,5.12,1.56,4.94c2.02-0.38,3.88-7.57,10.04-20.13c13.46-27.62,13.4-23.96,13.49-28.76
				c0.02-1.37-0.51-2.18-1.06-2.08c-0.95-0.03-1.55,0.71-12.5,20.79C315.64,100.53,322.45,74.11,327.73,59.67z"/>
		</g>
		<g>
			<path class="st0" d="M220.92,104.14c-1.7,6.45-4.34,15.49-10.81,15.49c-6.59,0-12.92-7-12.92-30.02
				c0-22.94,6.49-30.25,12.74-30.33c5.75-0.08,8.51,5.84,10.19,13.87l7.74-1.78c-2.62-14.24-9.37-20.39-17.65-20.44
				c-5.87-0.03-11.12,3.36-14.71,9.38c-3.72,6.39-6.3,16.74-6.3,29.03c0,13.5,2.52,23.51,6.53,30.02c3.47,5.63,8.96,8.76,14.38,8.76
				c8.45,0,16-9.05,18.56-21.73L220.92,104.14z"/>
		</g>
		<path d="M335.77,44.75c0,4.95-4.01,8.96-8.96,8.96s-8.96-4.01-8.96-8.96c0-4.95,4.01-8.96,8.96-8.96S335.77,39.8,335.77,44.75z"/>
	</g>
</g>
</svg>
