<svg width="170" height="40" viewBox="0 0 170 40" fill="none" xmlns="http://www.w3.org/2000/svg">
<g clip-path="url(#clip0_1_203)">
<path d="M63.6616 0.0400391V39.9497" stroke="white" stroke-width="1.76" stroke-miterlimit="10"/>
<path fill-rule="evenodd" clip-rule="evenodd" d="M119.937 25.698C142.755 23.357 158.391 25.432 170 28.6336C170.082 28.6437 148.248 25.4496 120.962 28.8544C94.9501 32.0008 76.6258 40.1353 76.671 39.9597C84.2025 34.7157 97.1568 28.862 119.937 25.698Z" fill="white"/>
<path fill-rule="evenodd" clip-rule="evenodd" d="M161.205 22.1552V23.0208H163.242V4.16748H161.205V9.92836L161.195 9.92084C160.678 9.35378 159.98 8.77418 159.006 8.79174C156.958 8.82687 155.451 11.2908 155.431 16.0129C155.416 20.454 156.687 23.3069 159.006 23.3269C160 23.3345 160.751 22.7222 161.195 22.1477L161.205 22.1552ZM159.32 21.0336C158.213 20.9483 157.545 19.3224 157.51 16.1233C157.475 12.8314 158.273 11.0825 159.33 11.0825C160.146 11.0825 160.688 11.8679 161.205 12.7436L161.195 19.2773C160.766 20.1529 160.262 21.006 159.335 21.0311H159.32V21.0336Z" fill="white"/>
<path fill-rule="evenodd" clip-rule="evenodd" d="M153.45 23.0259V13.391C153.41 11.6848 153.217 10.754 152.8 9.96861C152.406 9.1933 151.643 8.7793 150.852 8.7793C150.327 8.7793 149.705 9.03272 149.253 9.39152C148.766 9.77039 148.58 9.89584 148.118 10.4855L148.108 10.4955V9.09544H146.069L146.079 23.0259H148.108L148.128 13.2279C148.5 12.5806 148.738 12.3372 149.107 11.9157C149.486 11.5945 149.853 11.2733 150.269 11.2733C150.794 11.2733 150.967 11.5794 151.131 11.9332C151.314 12.3949 151.392 13.0648 151.392 14.1287L151.402 23.0259H153.45Z" fill="white"/>
<path fill-rule="evenodd" clip-rule="evenodd" d="M135.661 23.0234V20.8807H130.396V4.17261H128.355L128.365 23.0234H135.661Z" fill="white"/>
<path fill-rule="evenodd" clip-rule="evenodd" d="M143.719 23.0234V22.5542C143.488 22.3259 143.451 21.8065 143.451 20.6975V14.1613C143.451 10.1442 142.489 8.80939 140.441 8.79935C138.292 8.78932 137.418 10.8418 137.232 12.9168L139.296 13.1928C139.409 12.0486 139.705 10.8267 140.373 10.8443C141.121 10.8643 141.362 11.7751 141.392 13.6394V13.9279C138.003 14.7359 136.933 16.693 136.923 19.3852C136.913 21.8868 137.913 23.3245 139.627 23.3245C140.458 23.3245 141.199 22.8227 141.535 22.3635V22.4112C141.573 22.6496 141.611 22.7675 141.729 23.0234H143.719ZM141.402 20.0627C141.043 20.6874 140.496 21.1541 140.044 21.1642C139.246 21.1842 138.985 20.3211 139.015 18.9687C139.052 17.2249 140.062 16.3041 141.4 15.875V20.0627H141.402Z" fill="white"/>
<path fill-rule="evenodd" clip-rule="evenodd" d="M126.231 23.0234V22.5542C126 22.3259 125.96 21.8065 125.96 20.6975V14.1613C125.96 10.1442 124.998 8.80939 122.952 8.79935C120.803 8.78932 119.93 10.8418 119.746 12.9168L121.81 13.1928C121.926 12.0486 122.219 10.8267 122.887 10.8443C123.635 10.8643 123.876 11.7751 123.906 13.6394V13.9279C120.515 14.7359 119.448 16.693 119.438 19.3852C119.428 21.8868 120.427 23.3245 122.144 23.3245C122.972 23.3245 123.713 22.8227 124.052 22.3635V22.4112C124.092 22.6496 124.127 22.7675 124.245 23.0234H126.231ZM123.914 20.0627C123.557 20.6874 123.008 21.1541 122.556 21.1642C121.76 21.1842 121.496 20.3211 121.526 18.9687C121.564 17.2249 122.573 16.3041 123.911 15.875V20.0627H123.914Z" fill="white"/>
<path fill-rule="evenodd" clip-rule="evenodd" d="M96.7476 28.8996H98.7911V22.2656L98.8062 22.2731C99.0246 22.5265 99.1376 22.6595 99.4765 22.8904C99.956 23.2165 100.3 23.3018 100.797 23.3294C101.957 23.3972 102.969 22.5617 103.503 21.4802C104.083 20.311 104.432 18.4467 104.432 16.038C104.432 13.6293 104.063 11.7776 103.513 10.6711C102.841 9.32117 101.884 8.79175 100.943 8.79175C100.4 8.79175 99.9309 8.93978 99.5468 9.21077C99.1627 9.49429 99.0648 9.60469 98.7836 9.91833H98.7761L98.7836 9.10037H96.7501V28.8996H96.7476ZM98.7911 12.7185C99.1175 12.1088 99.3208 11.7625 99.6522 11.4815C100.034 11.1654 100.262 11.1127 100.586 11.1026C101.061 11.0876 101.515 11.4313 101.854 12.2367C102.198 13.1124 102.344 14.3168 102.344 16.0832C102.344 18.1532 102.125 19.3299 101.824 20.0275C101.505 20.6096 101.143 21.0186 100.579 21.0186C100.167 21.0186 99.8506 20.7928 99.5368 20.5042C99.2581 20.1529 99.0798 20.025 98.7886 19.4002V12.7185H98.7911Z" fill="white"/>
<path fill-rule="evenodd" clip-rule="evenodd" d="M94.7945 23.0234V22.5542C94.5635 22.3259 94.5234 21.8065 94.5234 20.6975V14.1613C94.5234 10.1442 93.5619 8.80939 91.5158 8.79935C89.3668 8.78932 88.4906 10.8418 88.3073 12.9168L90.371 13.1928C90.4865 12.0486 90.7827 10.8267 91.448 10.8443C92.1961 10.8643 92.4371 11.7751 92.4673 13.6394V13.9279C89.0781 14.7359 88.0086 16.693 88.0011 19.3852C87.991 21.8868 88.9877 23.3245 90.7049 23.3245C91.5333 23.3245 92.274 22.8227 92.6129 22.3635V22.4112C92.6505 22.6496 92.6882 22.7675 92.8062 23.0234H94.7945ZM92.4773 20.0627C92.1183 20.6874 91.571 21.1541 91.1191 21.1642C90.3233 21.1842 90.0597 20.3211 90.0898 18.9687C90.1275 17.2249 91.1392 16.3041 92.4773 15.875V20.0627Z" fill="white"/>
<path fill-rule="evenodd" clip-rule="evenodd" d="M113.462 9.12057H112.36V11.2583H113.462V19.4154C113.462 22.8002 114.695 23.2543 116.016 23.3973C116.781 23.4801 117.64 22.8227 118.107 22.4288L117.582 20.2911C117.198 20.7753 116.94 21.1567 116.432 21.1567C115.709 21.1567 115.488 20.2861 115.488 17.9175V11.2583H117.547V9.12057H115.488V6.11719H113.462V9.12057Z" fill="white"/>
<path fill-rule="evenodd" clip-rule="evenodd" d="M111.452 6.12216C109.878 5.939 108.954 8.00399 107.427 14.0108C105.944 19.8068 105.082 23.8539 104.851 27.1233C104.806 27.7531 105.012 28.408 105.243 28.3628C105.75 28.2674 106.217 26.4634 107.764 23.312C111.143 16.3819 111.128 17.3002 111.15 16.0958C111.155 15.7521 111.022 15.5488 110.884 15.5739C110.646 15.5664 110.495 15.7521 107.746 20.7903C108.419 16.3768 110.126 9.74781 111.452 6.12216Z" fill="white"/>
<path fill-rule="evenodd" clip-rule="evenodd" d="M84.6367 17.2801C84.2099 18.8985 83.5472 21.1667 81.9228 21.1667C80.2985 21.1667 78.6792 19.4104 78.6792 13.6344C78.6792 7.85849 80.3086 6.04442 81.8777 6.02434C83.3212 6.00427 84.0141 7.48966 84.4359 9.50446L86.379 9.05784C85.7213 5.48489 84.0267 3.94179 81.948 3.92925C80.4743 3.92172 79.1562 4.77231 78.255 6.28278C77.3211 7.88609 76.6733 10.483 76.6733 13.5667C76.6733 16.954 77.306 19.4656 78.3127 21.099C79.1839 22.5116 80.5621 23.297 81.9228 23.297C84.0442 23.297 85.9397 21.0262 86.5824 17.8447L84.6367 17.2801Z" fill="white"/>
<path d="M113.472 2.37852C113.472 3.62052 112.466 4.62667 111.223 4.62667C109.98 4.62667 108.974 3.62052 108.974 2.37852C108.974 1.13652 109.98 0.130371 111.223 0.130371C112.466 0.130371 113.472 1.13903 113.472 2.37852Z" fill="white"/>
<path d="M4.26808 3.21659C4.03962 3.21659 3.82874 3.17394 3.63292 3.09114C3.4371 3.00834 3.26889 2.89543 3.12579 2.75241C2.98269 2.60939 2.87223 2.43877 2.79189 2.24306C2.71155 2.04735 2.67139 1.8391 2.67139 1.6183V1.60826C2.67139 1.38746 2.71155 1.17921 2.79189 0.983498C2.87223 0.787788 2.98269 0.619679 3.12579 0.474151C3.26889 0.328624 3.4371 0.213205 3.63543 0.127896C3.83376 0.0425869 4.05217 0.00244141 4.29318 0.00244141C4.43879 0.00244141 4.57185 0.0149869 4.68985 0.0375687C4.81035 0.0601506 4.9183 0.0927688 5.01621 0.135423C5.11412 0.178078 5.2045 0.22826 5.28735 0.285969C5.3702 0.346187 5.44802 0.411424 5.51832 0.481679L5.084 0.983498C4.96349 0.873098 4.83797 0.787788 4.71244 0.725061C4.58692 0.662333 4.44633 0.632224 4.28816 0.632224C4.15762 0.632224 4.03711 0.657315 3.92665 0.707497C3.81618 0.757679 3.72078 0.827934 3.64045 0.915752C3.56011 1.00357 3.49735 1.10644 3.45467 1.22437C3.41199 1.3423 3.3894 1.46524 3.3894 1.59823V1.60826C3.3894 1.74124 3.41199 1.8667 3.45467 1.98463C3.49735 2.10255 3.56011 2.20543 3.63794 2.29575C3.71576 2.38357 3.81116 2.45383 3.92163 2.50652C4.03209 2.55921 4.15511 2.5843 4.28816 2.5843C4.46641 2.5843 4.61704 2.55168 4.73755 2.48645C4.86056 2.42121 4.98358 2.33339 5.10408 2.22048L5.54091 2.66208C5.46058 2.74739 5.37773 2.82517 5.29237 2.89292C5.20701 2.96066 5.11161 3.01837 5.01119 3.06856C4.90826 3.11623 4.7978 3.15387 4.67478 3.17896C4.55428 3.20405 4.41871 3.21659 4.26808 3.21659Z" fill="white"/>
<path d="M6.19873 0.0576172H8.53854V0.664818H6.87406V1.2946H8.34021V1.9018H6.87406V2.55417H8.56113V3.16388H6.19873V0.0576172Z" fill="white"/>
<path d="M9.28425 0.0576172H9.96711V2.54664H11.5161V3.16388H9.28174V0.0576172H9.28425Z" fill="white"/>
<path d="M12.1436 0.0576172H14.4834V0.664818H12.8189V1.2946H14.285V1.9018H12.8189V2.55417H14.506V3.16388H12.1436V0.0576172Z" fill="white"/>
<path d="M15.229 0.0576172H16.67C17.0265 0.0576172 17.2977 0.150454 17.4809 0.333618C17.6215 0.476636 17.6943 0.652273 17.6943 0.860528V0.870564C17.6943 0.958382 17.6843 1.03867 17.6617 1.10642C17.6391 1.17416 17.609 1.23689 17.5738 1.28958C17.5362 1.34478 17.4935 1.39246 17.4458 1.4326C17.3981 1.47526 17.3454 1.51038 17.2901 1.53798C17.4709 1.60573 17.6115 1.69857 17.7144 1.81649C17.8174 1.93442 17.8701 2.095 17.8701 2.30326V2.31329C17.8701 2.45631 17.8425 2.57926 17.7872 2.68715C17.732 2.79504 17.6542 2.88286 17.5512 2.95311C17.4483 3.02337 17.3278 3.07857 17.1822 3.1137C17.0366 3.14882 16.8809 3.16639 16.7052 3.16639H15.229V0.0576172ZM16.5269 1.31216C16.6776 1.31216 16.7981 1.28707 16.8859 1.23438C16.9738 1.18169 17.019 1.09889 17.019 0.983473V0.973437C17.019 0.870564 16.9813 0.790273 16.9035 0.735073C16.8257 0.679873 16.7152 0.652273 16.5696 0.652273H15.8943V1.30966H16.5269V1.31216ZM16.7077 2.56671C16.8583 2.56671 16.9763 2.53911 17.0642 2.48391C17.1496 2.42871 17.1922 2.3434 17.1922 2.22798V2.21795C17.1922 2.11508 17.1521 2.03228 17.0717 1.97206C16.9914 1.91184 16.8634 1.88173 16.6851 1.88173H15.8943V2.5642H16.7077V2.56671Z" fill="white"/>
<path d="M18.5454 0.0576172H19.9664C20.3605 0.0576172 20.6618 0.162999 20.8727 0.373763C21.0509 0.551909 21.1388 0.787764 21.1388 1.08384V1.09387C21.1388 1.34478 21.0785 1.55053 20.9555 1.7086C20.8325 1.86667 20.6718 1.98209 20.4735 2.05737L21.2317 3.16639H20.4333L19.768 2.17278H19.2308V3.16388H18.5479V0.0576172H18.5454ZM19.9237 1.56558C20.0919 1.56558 20.2224 1.52544 20.3128 1.44515C20.4032 1.36486 20.4484 1.25947 20.4484 1.12649V1.11646C20.4484 0.968419 20.4007 0.858019 20.3053 0.782746C20.2099 0.709982 20.0793 0.672346 19.9111 0.672346H19.2308V1.56307H19.9237V1.56558Z" fill="white"/>
<path d="M22.9337 0.0351562H23.5638L24.8944 3.164H24.1789L23.8952 2.46647H22.5822L22.2985 3.164H21.6006L22.9337 0.0351562ZM23.6517 1.86429L23.24 0.85814L22.8282 1.86429H23.6517Z" fill="white"/>
<path d="M26.2101 0.6874H25.2637V0.0576172H27.8395V0.6874H26.893V3.16388H26.2101V0.6874Z" fill="white"/>
<path d="M28.5049 0.0576172H29.1877V3.16388H28.5049V0.0576172Z" fill="white"/>
<path d="M30.0762 0.0576172H30.7064L32.1625 1.96955V0.0576172H32.8378V3.16388H32.2554L30.7491 1.18922V3.16388H30.0737V0.0576172H30.0762Z" fill="white"/>
<path d="M35.1929 3.21666C34.9494 3.21666 34.7284 3.17651 34.5301 3.09622C34.3318 3.01593 34.1585 2.90553 34.0154 2.76251C33.8723 2.6195 33.7594 2.45139 33.6815 2.25568C33.6012 2.05997 33.561 1.84669 33.561 1.61586V1.60582C33.561 1.38502 33.6012 1.17677 33.6841 0.981056C33.7669 0.785347 33.8799 0.617237 34.023 0.47171C34.1686 0.326182 34.3393 0.210764 34.5376 0.125455C34.736 0.0401455 34.9544 0 35.1904 0C35.3284 0 35.4565 0.0100364 35.5695 0.0276C35.6824 0.0476728 35.7904 0.0752729 35.8858 0.1104C35.9837 0.145528 36.0741 0.190691 36.1619 0.243382C36.2473 0.296073 36.3301 0.356292 36.4105 0.424037L35.9812 0.94342C35.9209 0.893238 35.8632 0.848074 35.8029 0.810438C35.7427 0.772801 35.6824 0.740183 35.6197 0.712583C35.5569 0.684983 35.4866 0.66491 35.4138 0.649856C35.341 0.634801 35.2581 0.627274 35.1703 0.627274C35.0448 0.627274 34.9293 0.652365 34.8213 0.705056C34.7134 0.757747 34.618 0.825492 34.5376 0.913311C34.4573 1.00113 34.392 1.104 34.3468 1.21942C34.3016 1.33484 34.279 1.4628 34.279 1.59578V1.60582C34.279 1.74884 34.3016 1.87931 34.3468 1.99975C34.392 2.12019 34.4573 2.22557 34.5426 2.31339C34.628 2.4012 34.7259 2.47146 34.8389 2.51913C34.9519 2.5668 35.0799 2.5919 35.218 2.5919C35.4715 2.5919 35.6874 2.52917 35.8607 2.40371V1.95709H35.1728V1.36746H36.5184V2.71735C36.3578 2.85284 36.1695 2.97077 35.9485 3.06611C35.7276 3.16899 35.4766 3.21666 35.1929 3.21666Z" fill="white"/>
<path d="M20.1593 16.7232C17.6261 15.3583 14.0687 15.574 14.0687 15.574L20.8647 11.02L20.8471 4.89282H2.61572V11.0953L12.4068 10.9975L5.41495 15.5063L5.40742 20.7879L14.498 20.7704C17.5734 20.8532 19.3308 21.9923 20.1593 22.607V16.7232Z" fill="white"/>
<path d="M45.0539 15.5841C45.0539 11.7026 42.0212 5.54272 33.8821 5.54272C26.5187 5.54272 21.3747 10.4254 21.3747 17.4133C21.3722 18.1459 21.3822 20.6023 21.3922 22.6522C21.3998 24.1 21.4073 25.4624 21.4073 26.0747C21.4073 31.4416 19.9487 33.0173 14.9076 33.1051C12.7058 33.1478 11.0665 32.6485 9.89656 31.5871C8.53586 30.3527 7.54671 28.782 7.23038 25.5703H5.53076C5.83202 28.8924 6.83121 31.0853 8.75929 32.8367C10.2104 34.1539 12.1435 34.7963 14.664 34.7963C14.7544 34.7963 14.8448 34.7963 14.9377 34.7963C20.8851 34.6934 23.0969 32.3298 23.0969 26.0772C23.0969 25.4624 23.0894 24.0975 23.0818 22.6447C23.0718 20.5998 23.0617 18.1484 23.0642 17.4183C23.0642 11.3287 27.4125 7.23636 33.8821 7.23636C40.7885 7.23636 43.3618 12.3574 43.3618 15.5866C43.3618 16.3143 43.3693 18.4445 43.3693 18.4445L45.0589 18.437C45.0589 18.437 45.0539 16.3118 45.0539 15.5866V15.5841Z" fill="url(#paint0_linear_1_203)"/>
<path d="M42.1719 15.7096C42.1719 13.5769 39.7065 8.21997 33.8821 8.21997C28.0577 8.21997 24.2568 12.0915 24.2568 17.4233C24.2568 18.1836 24.2643 20.3464 24.2743 22.4365C24.2819 24.0022 24.2894 25.465 24.2894 26.0772V26.431C24.312 29.4143 24.3547 35.6193 14.9628 35.7824C11.6539 35.8401 9.08569 34.997 7.33585 33.2808C5.62619 31.6022 4.63955 29.0655 4.33829 25.5729H2.88721C3.20604 29.4896 4.33578 32.365 6.3216 34.3146C8.29487 36.2516 11.0941 37.2352 14.649 37.2352C14.762 37.2352 14.8749 37.2352 14.9879 37.2352C25.8133 37.0495 25.7606 29.3315 25.7405 26.426V26.0822C25.7405 25.47 25.7304 24.0047 25.7229 22.4365C25.7129 20.4468 25.7028 18.1911 25.7053 17.4334C25.7053 12.8668 29.0669 9.67525 33.8821 9.67525C39.0111 9.67525 40.7233 14.4375 40.7233 15.7171C40.7233 16.4247 40.7308 18.4571 40.7308 18.4571L42.1794 18.4521C42.1794 18.4521 42.1719 16.4172 42.1719 15.7121V15.7096Z" fill="url(#paint1_linear_1_203)"/>
<path d="M39.5332 16.1111C39.5332 14.2067 37.5926 10.6538 33.8845 10.6538C29.0844 10.6538 26.9002 14.164 26.9002 17.4233C26.9002 18.1309 26.9078 20.635 26.9178 22.6297C26.9253 24.0875 26.9329 25.4575 26.9329 26.0772V26.2779C26.9329 28.1798 26.9379 30.5459 25.5119 32.9898C24.1286 35.3634 21.6859 38.1008 15.0154 38.2162C11.3074 38.284 8.28221 37.2753 6.03278 35.2354C3.35908 32.8066 2.03352 29.9061 1.6946 25.5729H0C0.364026 30.4054 1.88289 33.7525 4.89552 36.4875C7.396 38.7582 10.6898 39.9099 14.6815 39.9099C14.802 39.9099 14.9225 39.9099 15.043 39.9099C22.6424 39.7794 25.4918 36.3871 26.9705 33.8454C28.6275 31.0051 28.6225 28.2752 28.6225 26.2805V26.0822C28.6225 25.4625 28.6149 24.09 28.6074 22.6272C28.5974 20.635 28.5873 18.1384 28.5898 17.4334C28.5898 15.5465 29.7045 12.3525 33.8845 12.3525C36.6511 12.3525 37.8436 15.2128 37.8436 16.1186C37.8436 16.781 37.8511 18.3191 37.8511 18.4546H38.406L39.5432 18.4446C39.5382 18.3066 39.5332 16.771 39.5332 16.1136V16.1111Z" fill="url(#paint2_linear_1_203)"/>
<path d="M37.8486 18.457L38.6947 18.452L38.4035 18.4495L37.8486 18.457Z" fill="white"/>
<path d="M37.7156 27.0029C37.3114 31.1781 35.5189 32.6308 30.9673 32.7161C30.2895 32.7287 29.23 32.6283 28.7179 32.533C28.3212 34.1739 26.7722 36.407 24.2266 38.5197C26.0216 39.4731 28.2233 40 30.7313 40C30.8543 40 30.9774 40 31.1029 40C38.5692 39.862 41.6019 36.1837 43.2538 33.1201C44.4563 30.892 44.9108 28.822 45.0739 27.0054H37.7156V27.0029Z" fill="white"/>
<path d="M36.2466 21.1117L35.2349 19.5159H35.9127L36.5403 20.5722L37.1805 19.5159H37.8383L36.824 21.1016V22.1504H36.2441V21.1117H36.2466Z" fill="white"/>
<path d="M38.1045 19.5159H40.0903V20.0302H38.6794V20.5647H39.9221V21.0815H38.6794V21.6361H40.1104V22.1504H38.107V19.5159H38.1045Z" fill="white"/>
<path d="M41.4383 19.4983H41.9731L43.1028 22.1529H42.4953L42.2542 21.5608H41.1396L40.8986 22.1529H40.3086L41.4383 19.4983ZM42.0484 21.0489L41.6969 20.1933L41.3454 21.0489H42.0484Z" fill="white"/>
<path d="M43.4141 19.5159H44.6192C44.9531 19.5159 45.2092 19.6062 45.3874 19.7843C45.538 19.9349 45.6133 20.1356 45.6133 20.3865V20.3941C45.6133 20.6073 45.5606 20.7805 45.4577 20.9159C45.3523 21.0514 45.2167 21.1493 45.0485 21.212L45.6912 22.1529H45.0133L44.4485 21.3099H43.9916V22.1529H43.4116V19.5159H43.4141ZM44.584 20.7955C44.7271 20.7955 44.8376 20.7629 44.9129 20.6951C44.9882 20.6274 45.0284 20.5371 45.0284 20.4242V20.4166C45.0284 20.2912 44.9882 20.1958 44.9079 20.1356C44.8276 20.0729 44.7146 20.0403 44.574 20.0403H43.9966V20.7955H44.584Z" fill="white"/>
<path d="M46.9844 22.188C46.7835 22.188 46.5877 22.1529 46.3944 22.0852C46.2011 22.0174 46.0254 21.9095 45.8672 21.7665L46.2086 21.3575C46.3291 21.4554 46.4521 21.5332 46.5802 21.5909C46.7057 21.6486 46.8463 21.6787 46.9969 21.6787C47.1174 21.6787 47.2103 21.6561 47.2781 21.6134C47.3459 21.5708 47.3785 21.5081 47.3785 21.4303V21.4228C47.3785 21.3851 47.371 21.3525 47.3584 21.3224C47.3434 21.2948 47.3183 21.2672 47.2781 21.2421C47.2379 21.217 47.1852 21.1919 47.1149 21.1668C47.0446 21.1417 46.9568 21.1141 46.8438 21.0865C46.7107 21.0539 46.5902 21.0188 46.4823 20.9786C46.3743 20.9385 46.2814 20.8883 46.2061 20.8306C46.1308 20.7704 46.0731 20.6976 46.0304 20.6098C45.9877 20.522 45.9676 20.4141 45.9676 20.2836V20.2761C45.9676 20.1557 45.9902 20.0478 46.0354 19.9499C46.0806 19.8521 46.1433 19.7693 46.2237 19.699C46.304 19.6288 46.4019 19.5736 46.5149 19.5384C46.6279 19.5008 46.7509 19.4807 46.8865 19.4807C47.0798 19.4807 47.258 19.5108 47.4187 19.5685C47.5819 19.6262 47.73 19.709 47.8656 19.8169L47.5643 20.2535C47.4463 20.1732 47.3308 20.1105 47.2178 20.0628C47.1049 20.0152 46.9919 19.9926 46.8789 19.9926C46.766 19.9926 46.6806 20.0152 46.6254 20.0578C46.5701 20.1005 46.54 20.1557 46.54 20.2209V20.2284C46.54 20.2711 46.5475 20.3087 46.5651 20.3388C46.5802 20.3689 46.6103 20.399 46.653 20.4241C46.6957 20.4492 46.7534 20.4718 46.8287 20.4969C46.904 20.5195 46.9969 20.5446 47.1099 20.5747C47.243 20.6098 47.3609 20.65 47.4664 20.6926C47.5718 20.7353 47.6597 20.788 47.73 20.8507C47.8028 20.9134 47.8555 20.9837 47.8932 21.0665C47.9308 21.1493 47.9484 21.2496 47.9484 21.365V21.3726C47.9484 21.503 47.9258 21.6185 47.8781 21.7213C47.8304 21.8242 47.7651 21.9095 47.6798 21.9773C47.5944 22.045 47.494 22.1002 47.376 22.1353C47.258 22.1705 47.1275 22.188 46.9844 22.188Z" fill="white"/>
<path d="M31.1177 23.2795H31.6976V25.9141H31.1177V23.2795Z" fill="white"/>
<path d="M32.2627 23.2795H32.7974L34.0326 24.9004V23.2795H34.605V25.9141H34.113L32.8376 24.2405V25.9141H32.2652V23.2795H32.2627Z" fill="white"/>
<path d="M35.9707 23.2795H36.6109L37.2988 25.1338L37.9892 23.2795H38.6143L37.5473 25.9342H37.0352L35.9707 23.2795Z" fill="white"/>
<path d="M38.9531 23.2795H39.5331V25.9141H38.9531V23.2795Z" fill="white"/>
<path d="M40.0977 23.2795H42.0835V23.7939H40.6726V24.3283H41.9153V24.8452H40.6726V25.3997H42.1036V25.9141H40.1002V23.2795H40.0977Z" fill="white"/>
<path d="M43.1408 23.814H42.3374V23.2795H44.5216V23.814H43.7207V25.9141H43.1408V23.814Z" fill="white"/>
<path d="M44.873 23.2795H45.4078L46.643 24.9004V23.2795H47.2154V25.9141H46.7233L45.448 24.2405V25.9141H44.8756V23.2795H44.873Z" fill="white"/>
<path d="M48.6561 23.262H49.1908L50.3206 25.9166H49.713L49.472 25.3244H48.3573L48.1163 25.9166H47.5264L48.6561 23.262ZM49.2662 24.8126L48.9147 23.957L48.5632 24.8126H49.2662Z" fill="white"/>
<path d="M50.6343 23.2795H51.2594L51.9523 24.3936L52.6452 23.2795H53.2703V25.9141H52.6979V24.1929L51.9548 25.3194H51.9397L51.2067 24.2054V25.9141H50.6343V23.2795Z" fill="white"/>
</g>
<defs>
<linearGradient id="paint0_linear_1_203" x1="15.2892" y1="37.4409" x2="37.1935" y2="3.60438" gradientUnits="userSpaceOnUse">
<stop stop-color="#C39A5B"/>
<stop offset="0.11" stop-color="#F4D582"/>
<stop offset="0.44" stop-color="#E7E2CD"/>
<stop offset="0.5" stop-color="#E9DDBB"/>
<stop offset="0.66" stop-color="#ECCF8B"/>
<stop offset="0.74" stop-color="#EDCA79"/>
<stop offset="0.75" stop-color="#E9C574"/>
<stop offset="0.81" stop-color="#D6AE5C"/>
<stop offset="0.87" stop-color="#CA9F4C"/>
<stop offset="0.93" stop-color="#C39644"/>
<stop offset="1" stop-color="#C09441"/>
</linearGradient>
<linearGradient id="paint1_linear_1_203" x1="13.3486" y1="36.1838" x2="35.2529" y2="2.34736" gradientUnits="userSpaceOnUse">
<stop stop-color="#C39A5B"/>
<stop offset="0.11" stop-color="#F4D582"/>
<stop offset="0.44" stop-color="#E7E2CD"/>
<stop offset="0.5" stop-color="#E9DDBB"/>
<stop offset="0.66" stop-color="#ECCF8B"/>
<stop offset="0.74" stop-color="#EDCA79"/>
<stop offset="0.75" stop-color="#E9C574"/>
<stop offset="0.81" stop-color="#D6AE5C"/>
<stop offset="0.87" stop-color="#CA9F4C"/>
<stop offset="0.93" stop-color="#C39644"/>
<stop offset="1" stop-color="#C09441"/>
</linearGradient>
<linearGradient id="paint2_linear_1_203" x1="11.4003" y1="34.9243" x2="33.3046" y2="1.08781" gradientUnits="userSpaceOnUse">
<stop stop-color="#C39A5B"/>
<stop offset="0.11" stop-color="#F4D582"/>
<stop offset="0.44" stop-color="#E7E2CD"/>
<stop offset="0.5" stop-color="#E9DDBB"/>
<stop offset="0.66" stop-color="#ECCF8B"/>
<stop offset="0.74" stop-color="#EDCA79"/>
<stop offset="0.75" stop-color="#E9C574"/>
<stop offset="0.81" stop-color="#D6AE5C"/>
<stop offset="0.87" stop-color="#CA9F4C"/>
<stop offset="0.93" stop-color="#C39644"/>
<stop offset="1" stop-color="#C09441"/>
</linearGradient>
<clipPath id="clip0_1_203">
<rect width="170" height="40" fill="white"/>
</clipPath>
</defs>
</svg>
