<svg width="945" height="198" viewBox="0 0 945 198" fill="none" xmlns="http://www.w3.org/2000/svg">
<path d="M1 0V197.899" stroke="white" stroke-width="1.76" stroke-miterlimit="10"/>
<path fill-rule="evenodd" clip-rule="evenodd" d="M500.579 127.235C703.143 115.627 841.944 125.917 944.998 141.792C945.734 141.842 751.906 126.004 509.672 142.887C278.759 158.489 116.088 198.825 116.49 197.955C183.35 171.951 298.349 142.924 500.579 127.235Z" fill="black"/>
<path fill-rule="evenodd" clip-rule="evenodd" d="M866.928 109.666V113.958H885.002V20.4707H866.928V49.0371L866.839 48.9997C862.248 46.1879 856.052 43.3138 847.405 43.4009C829.219 43.5751 815.847 55.793 815.668 79.2084C815.535 101.23 826.812 115.377 847.405 115.476C856.23 115.514 862.894 112.478 866.839 109.629L866.928 109.666ZM850.19 104.104C840.362 103.681 834.434 95.6191 834.122 79.7559C833.81 63.4322 840.897 54.7603 850.28 54.7603C857.523 54.7603 862.337 58.6546 866.928 62.9968L866.839 95.3952C863.028 99.7374 858.548 103.968 850.324 104.092H850.19V104.104Z" fill="black"/>
<path fill-rule="evenodd" clip-rule="evenodd" d="M798.084 113.982V66.2059C797.727 57.7455 796.011 53.1296 792.312 49.2353C788.813 45.3908 782.038 43.3379 775.017 43.3379C770.359 43.3379 764.832 44.5945 760.821 46.3737C756.497 48.2524 754.848 48.8745 750.747 51.7983L750.658 51.8481V44.9056H732.561L732.65 113.982H750.658L750.836 65.3972C754.135 62.1872 756.252 60.9804 759.528 58.8901C762.893 57.2976 766.147 55.705 769.847 55.705C774.505 55.705 776.042 57.2229 777.491 58.9772C779.118 61.2665 779.809 64.5885 779.809 69.8638L779.898 113.982H798.084Z" fill="black"/>
<path fill-rule="evenodd" clip-rule="evenodd" d="M640.161 113.971V103.346H593.425V20.4961H575.306L575.395 113.971H640.161Z" fill="black"/>
<path fill-rule="evenodd" clip-rule="evenodd" d="M711.701 113.97V111.644C709.65 110.511 709.316 107.936 709.316 102.437V70.0258C709.316 50.1065 700.78 43.4874 682.594 43.4377C663.517 43.3879 655.761 53.5653 654.112 63.8547L672.431 65.2233C673.434 59.5498 676.064 53.4907 681.992 53.5777C688.634 53.6773 690.773 58.1937 691.041 67.4379V68.8687C660.954 72.875 651.46 82.5796 651.371 95.9296C651.281 108.334 660.151 115.463 675.373 115.463C682.75 115.463 689.325 112.975 692.311 110.698V110.934C692.646 112.116 692.98 112.701 694.027 113.97H711.701ZM691.13 99.2889C687.943 102.387 683.085 104.701 679.073 104.751C671.986 104.85 669.668 100.57 669.935 93.8643C670.27 85.2172 679.229 80.6511 691.108 78.5235V99.2889H691.13Z" fill="black"/>
<path fill-rule="evenodd" clip-rule="evenodd" d="M556.451 113.97V111.644C554.401 110.511 554.044 107.936 554.044 102.437V70.0258C554.044 50.1065 545.509 43.4874 527.345 43.4377C508.267 43.3879 500.512 53.5653 498.885 63.8547L517.204 65.2233C518.23 59.5498 520.837 53.4907 526.765 53.5777C533.407 53.6773 535.546 58.1937 535.814 67.4379V68.8687C505.704 72.875 496.233 82.5796 496.143 95.9296C496.054 108.334 504.924 115.463 520.169 115.463C527.523 115.463 534.098 112.975 537.106 110.698V110.934C537.463 112.116 537.775 112.701 538.823 113.97H556.451ZM535.881 99.2889C532.716 102.387 527.835 104.701 523.824 104.751C516.759 104.85 514.419 100.57 514.686 93.8643C515.02 85.2172 523.98 80.6511 535.858 78.5235V99.2889H535.881Z" fill="black"/>
<path fill-rule="evenodd" clip-rule="evenodd" d="M294.717 143.107H312.858V110.211L312.992 110.248C314.931 111.505 315.934 112.164 318.942 113.309C323.199 114.926 326.253 115.349 330.665 115.486C340.962 115.822 349.943 111.679 354.69 106.317C359.839 100.519 362.937 91.2745 362.937 79.3303C362.937 67.3862 359.66 58.2042 354.78 52.7173C348.807 46.0237 340.315 43.3984 331.958 43.3984C327.144 43.3984 322.976 44.1325 319.566 45.4762C316.157 46.8821 315.287 47.4296 312.791 48.9848H312.725L312.791 44.9288H294.739V143.107H294.717ZM312.858 62.8698C315.755 59.8465 317.561 58.1295 320.503 56.736C323.89 55.1684 325.918 54.9071 328.793 54.8573C333.005 54.7827 337.039 56.4872 340.048 60.481C343.101 64.8232 344.394 70.7953 344.394 79.5543C344.394 89.8188 342.455 95.654 339.781 99.1128C336.95 101.999 333.741 104.027 328.726 104.027C325.071 104.027 322.263 102.908 319.477 101.477C317.004 99.7349 315.421 99.1004 312.836 96.0023V62.8698H312.858Z" fill="black"/>
<path fill-rule="evenodd" clip-rule="evenodd" d="M277.378 113.97V111.644C275.327 110.511 274.971 107.936 274.971 102.437V70.0258C274.971 50.1065 266.435 43.4874 248.271 43.4377C229.194 43.3879 221.416 53.5653 219.789 63.8547L238.108 65.2233C239.134 59.5498 241.763 53.4907 247.669 53.5777C254.311 53.6773 256.45 58.1937 256.718 67.4379V68.8687C226.631 72.875 217.137 82.5796 217.07 95.9296C216.981 108.334 225.828 115.463 241.073 115.463C248.427 115.463 255.002 112.975 258.01 110.698V110.934C258.345 112.116 258.679 112.701 259.727 113.97H277.378ZM256.807 99.2889C253.62 102.387 248.761 104.701 244.75 104.751C237.685 104.85 235.345 100.57 235.612 93.8643C235.947 85.2172 244.928 80.6511 256.807 78.5235V99.2889Z" fill="black"/>
<path fill-rule="evenodd" clip-rule="evenodd" d="M443.102 45.0237H433.318V55.6241H443.102V96.0724C443.102 112.856 454.045 115.108 465.767 115.818C472.565 116.228 480.187 112.968 484.332 111.015L479.674 100.415C476.264 102.816 473.969 104.707 469.467 104.707C463.048 104.707 461.087 100.39 461.087 88.6446V55.6241H479.362V45.0237H461.087V30.1309H443.102V45.0237Z" fill="black"/>
<path fill-rule="evenodd" clip-rule="evenodd" d="M425.25 30.1624C411.276 29.2541 403.074 39.4937 389.524 69.2794C376.353 98.0199 368.708 118.089 366.658 134.3C366.257 137.423 368.084 140.67 370.135 140.446C374.637 139.974 378.782 131.028 392.511 115.401C422.508 81.0369 422.375 85.5906 422.575 79.6185C422.62 77.914 421.439 76.9062 420.213 77.0306C418.096 76.9933 416.758 77.914 392.355 102.897C398.327 81.012 413.482 48.1408 425.25 30.1624Z" fill="black"/>
<path fill-rule="evenodd" clip-rule="evenodd" d="M187.205 85.4882C183.417 93.5132 177.533 104.761 163.113 104.761C148.694 104.761 134.319 96.0513 134.319 67.4103C134.319 38.7693 148.783 29.7738 162.712 29.6743C175.527 29.5748 181.678 36.9403 185.422 46.9311L202.672 44.7164C196.833 26.9993 181.79 19.3476 163.336 19.2854C150.254 19.2481 138.553 23.4658 130.553 30.9558C122.262 38.9061 116.512 51.7834 116.512 67.0743C116.512 83.8708 122.128 96.325 131.065 104.425C138.799 111.429 151.034 115.324 163.113 115.324C181.946 115.324 198.772 104.064 204.478 88.2876L187.205 85.4882Z" fill="black"/>
<path d="M443.191 11.5951C443.191 17.7538 434.254 22.743 423.222 22.743C412.19 22.743 403.253 17.7538 403.253 11.5951C403.253 5.43642 412.19 0.447266 423.222 0.447266C434.254 0.447266 443.191 5.44887 443.191 11.5951Z" fill="black"/>
</svg>
