<svg width="40" height="40" viewBox="0 0 40 40" fill="none" xmlns="http://www.w3.org/2000/svg">
<path d="M20 40C31.0457 40 40 31.0457 40 20C40 8.9543 31.0457 0 20 0C8.9543 0 0 8.9543 0 20C0 31.0457 8.9543 40 20 40Z" fill="white"/>
<path d="M20 38.125C30.0102 38.125 38.125 30.0102 38.125 20C38.125 9.98984 30.0102 1.875 20 1.875C9.98984 1.875 1.875 9.98984 1.875 20C1.875 30.0102 9.98984 38.125 20 38.125Z" fill="url(#paint0_linear_8_391)"/>
<path d="M20.0002 35.4173C28.5146 35.4173 35.4168 28.515 35.4168 20.0007C35.4168 11.4863 28.5146 4.58398 20.0002 4.58398C11.4858 4.58398 4.5835 11.4863 4.5835 20.0007C4.5835 28.515 11.4858 35.4173 20.0002 35.4173Z" fill="url(#paint1_linear_8_391)" stroke="#6F8595"/>
<path d="M26.5625 24.7321V26.1607C26.5625 26.5552 26.236 26.875 25.8333 26.875H14.1667C13.764 26.875 13.4375 26.5552 13.4375 26.1607V24.7321H26.5625ZM20 14.0179C20.2762 14.0179 20.5286 14.1707 20.6521 14.4127L23.1992 19.4032L26.8872 16.995C27.1349 16.8332 27.4582 16.8352 27.7038 17C27.9495 17.1649 28.0681 17.4595 28.0035 17.7442L26.5807 24.0179H13.4197L11.9965 17.7442C11.9319 17.4595 12.0506 17.1649 12.2962 17.0001C12.5418 16.8353 12.865 16.8332 13.1127 16.995L16.8008 19.4032L19.3479 14.4127C19.4714 14.1707 19.7238 14.0179 20 14.0179ZM28.0208 15.4464C28.4235 15.4464 28.75 15.7662 28.75 16.1607C28.75 16.5552 28.4235 16.875 28.0208 16.875C27.6181 16.875 27.2917 16.5552 27.2917 16.1607C27.2917 15.7662 27.6181 15.4464 28.0208 15.4464ZM11.9792 15.4464C12.3819 15.4464 12.7083 15.7662 12.7083 16.1607C12.7083 16.5552 12.3819 16.875 11.9792 16.875C11.5765 16.875 11.25 16.5552 11.25 16.1607C11.25 15.7662 11.5765 15.4464 11.9792 15.4464ZM20 11.875C20.4027 11.875 20.7292 12.1948 20.7292 12.5893C20.7292 12.9838 20.4027 13.3036 20 13.3036C19.5973 13.3036 19.2708 12.9838 19.2708 12.5893C19.2708 12.1948 19.5973 11.875 20 11.875Z" fill="white"/>
<defs>
<linearGradient id="paint0_linear_8_391" x1="37.0693" y1="2.93068" x2="2.32047" y2="37.6795" gradientUnits="userSpaceOnUse">
<stop stop-color="#B9C3CA"/>
<stop offset="1" stop-color="#6F8595"/>
</linearGradient>
<linearGradient id="paint1_linear_8_391" x1="34.5189" y1="5.48192" x2="4.96241" y2="35.0384" gradientUnits="userSpaceOnUse">
<stop stop-color="#D5DBDE"/>
<stop offset="0.991528" stop-color="#627683"/>
</linearGradient>
</defs>
</svg>
