<?xml version="1.0" encoding="iso-8859-1"?>
<!-- Uploaded to: SVG Repo, www.svgrepo.com, Generator: SVG Repo Mixer Tools -->
<svg fill="#000000" height="800px" width="800px" version="1.1" id="Layer_1" xmlns="http://www.w3.org/2000/svg" xmlns:xlink="http://www.w3.org/1999/xlink" 
	 viewBox="0 0 512 512" xml:space="preserve">
<g>
	<g>
		<path fill="white" d="M437.019,74.981C388.668,26.628,324.38,0,256,0S123.332,26.628,74.981,74.981C26.629,123.333,0,187.621,0,256
			s26.628,132.668,74.981,181.019C123.333,485.371,187.62,512,256,512c68.38,0,132.668-26.628,181.019-74.981
			C485.371,388.667,512,324.379,512,256S485.372,123.332,437.019,74.981z M177.821,45.387
			c-10.394,13.577-19.688,29.843-27.623,48.313c-9.8-5.233-19.232-11.209-28.215-17.892
			C138.921,63.179,157.695,52.882,177.821,45.387z M97.736,96.718c13.013,10.244,26.91,19.158,41.497,26.635
			c-10.832,34.321-17.506,74.072-18.821,116.973H31.903C35.778,184.368,60.229,133.986,97.736,96.718z M31.903,271.673h88.509
			c1.313,42.901,7.988,82.654,18.821,116.973c-14.587,7.477-28.483,16.391-41.497,26.635
			C60.229,378.014,35.778,327.632,31.903,271.673z M121.982,436.192c8.983-6.683,18.415-12.658,28.215-17.892
			c7.935,18.47,17.229,34.736,27.623,48.313C157.694,459.118,138.92,448.822,121.982,436.192z M240.327,477.845
			c-20.152-7.145-39.687-27.74-55.276-58.918c-2.166-4.333-4.231-8.819-6.199-13.434c19.665-7.188,40.345-11.635,61.476-13.108
			V477.845z M240.327,360.983c-24.804,1.516-49.088,6.618-72.148,15.037c-9.536-31.325-15.173-66.922-16.405-104.346h88.553V360.983
			z M240.327,240.327h-88.552c1.232-37.424,6.868-73.021,16.405-104.346c23.059,8.418,47.343,13.52,72.147,15.036V240.327z
			 M240.327,119.615c-21.131-1.472-41.811-5.92-61.476-13.107c1.969-4.616,4.033-9.102,6.199-13.435
			c15.589-31.178,35.124-51.773,55.276-58.918V119.615z M480.097,240.327h-88.509c-1.313-42.901-7.988-82.654-18.821-116.973
			c14.587-7.477,28.483-16.391,41.496-26.635C451.77,133.986,476.222,184.368,480.097,240.327z M390.018,75.809
			c-8.983,6.683-18.415,12.658-28.215,17.892c-7.935-18.471-17.229-34.737-27.623-48.313
			C354.306,52.883,373.079,63.179,390.018,75.809z M271.673,34.155c20.152,7.145,39.687,27.74,55.276,58.918
			c2.166,4.333,4.231,8.819,6.199,13.434c-19.665,7.187-40.346,11.635-61.476,13.107V34.155z M271.673,151.017
			c24.805-1.516,49.088-6.618,72.148-15.037c9.536,31.325,15.173,66.922,16.405,104.346h-88.553V151.017z M271.673,271.673h88.552
			c-1.232,37.424-6.868,73.021-16.405,104.346c-23.059-8.418-47.342-13.521-72.147-15.036V271.673z M326.95,418.928
			c-15.589,31.178-35.124,51.773-55.276,58.918v-85.46c21.131,1.472,41.811,5.92,61.476,13.107
			C331.18,410.109,329.116,414.595,326.95,418.928z M334.179,466.613c10.394-13.577,19.688-29.843,27.623-48.313
			c9.8,5.234,19.232,11.209,28.215,17.892C373.08,448.822,354.306,459.118,334.179,466.613z M414.264,415.282
			c-13.013-10.244-26.91-19.158-41.496-26.635c10.832-34.321,17.506-74.072,18.821-116.973h88.509
			C476.222,327.632,451.77,378.014,414.264,415.282z"/>
	</g>
</g>
</svg>